{
	"asset":{
		"generator":"Khronos glTF Blender I/O v3.6.28",
		"version":"2.0"
	},
	"scene":0,
	"scenes":[
		{
			"name":"Scene",
			"nodes":[
				0,
				1,
				2,
				3
			]
		}
	],
	"nodes":[
		{
			"name":"Empty",
			"scale":[
				1,
				1,
				0.5
			],
			"translation":[
				0,
				0,
				0.5
			]
		},
		{
			"mesh":0,
			"name":"BezierCurve"
		},
		{
			"mesh":1,
			"name":"BezierCurve.001"
		},
		{
			"mesh":2,
			"name":"BezierCurve.002"
		}
	],
	"meshes":[
		{
			"name":"BezierCurve",
			"primitives":[
				{
					"attributes":{
						"POSITION":0,
						"NORMAL":1,
						"TEXCOORD_0":2
					},
					"indices":3
				}
			]
		},
		{
			"name":"BezierCurve.002",
			"primitives":[
				{
					"attributes":{
						"POSITION":4,
						"NORMAL":5,
						"TEXCOORD_0":6
					},
					"indices":7
				}
			]
		},
		{
			"name":"BezierCurve.004",
			"primitives":[
				{
					"attributes":{
						"POSITION":8,
						"NORMAL":9,
						"TEXCOORD_0":10
					},
					"indices":7
				}
			]
		}
	],
	"accessors":[
		{
			"bufferView":0,
			"componentType":5126,
			"count":118,
			"max":[
				0.47327637672424316,
				0.5747703909873962,
				0.5819903016090393
			],
			"min":[
				-0.4732763171195984,
				-0.4447992444038391,
				0.5641936659812927
			],
			"type":"VEC3"
		},
		{
			"bufferView":1,
			"componentType":5126,
			"count":118,
			"type":"VEC3"
		},
		{
			"bufferView":2,
			"componentType":5126,
			"count":118,
			"type":"VEC2"
		},
		{
			"bufferView":3,
			"componentType":5123,
			"count":288,
			"type":"SCALAR"
		},
		{
			"bufferView":4,
			"componentType":5126,
			"count":320,
			"max":[
				0.6882330775260925,
				0.8405895233154297,
				0.5227991938591003
			],
			"min":[
				0.39929264783859253,
				0.5650204420089722,
				0.48260724544525146
			],
			"type":"VEC3"
		},
		{
			"bufferView":5,
			"componentType":5126,
			"count":320,
			"type":"VEC3"
		},
		{
			"bufferView":6,
			"componentType":5126,
			"count":320,
			"type":"VEC2"
		},
		{
			"bufferView":7,
			"componentType":5123,
			"count":480,
			"type":"SCALAR"
		},
		{
			"bufferView":8,
			"componentType":5126,
			"count":320,
			"max":[
				0.7753751277923584,
				0.5177698135375977,
				0.4366911053657532
			],
			"min":[
				0.5516873002052307,
				0.30443358421325684,
				0.4055759310722351
			],
			"type":"VEC3"
		},
		{
			"bufferView":9,
			"componentType":5126,
			"count":320,
			"type":"VEC3"
		},
		{
			"bufferView":10,
			"componentType":5126,
			"count":320,
			"type":"VEC2"
		}
	],
	"bufferViews":[
		{
			"buffer":0,
			"byteLength":1416,
			"byteOffset":0,
			"target":34962
		},
		{
			"buffer":0,
			"byteLength":1416,
			"byteOffset":1416,
			"target":34962
		},
		{
			"buffer":0,
			"byteLength":944,
			"byteOffset":2832,
			"target":34962
		},
		{
			"buffer":0,
			"byteLength":576,
			"byteOffset":3776,
			"target":34963
		},
		{
			"buffer":0,
			"byteLength":3840,
			"byteOffset":4352,
			"target":34962
		},
		{
			"buffer":0,
			"byteLength":3840,
			"byteOffset":8192,
			"target":34962
		},
		{
			"buffer":0,
			"byteLength":2560,
			"byteOffset":12032,
			"target":34962
		},
		{
			"buffer":0,
			"byteLength":960,
			"byteOffset":14592,
			"target":34963
		},
		{
			"buffer":0,
			"byteLength":3840,
			"byteOffset":15552,
			"target":34962
		},
		{
			"buffer":0,
			"byteLength":3840,
			"byteOffset":19392,
			"target":34962
		},
		{
			"buffer":0,
			"byteLength":2560,
			"byteOffset":23232,
			"target":34962
		}
	],
	"buffers":[
		{
			"byteLength":25792,
			"uri":"scenes.bin"
		}
	]
}
