{
	"asset":{
		"generator":"Khronos glTF Blender I/O v3.6.28",
		"version":"2.0"
	},
	"scene":0,
	"scenes":[
		{
			"name":"Scene",
			"nodes":[
				0,
				1,
				2,
				3,
				4
			]
		}
	],
	"nodes":[
		{
			"name":"Empty",
			"scale":[
				1,
				1,
				0.5
			],
			"translation":[
				0,
				0,
				0.5
			]
		},
		{
			"camera":0,
			"name":"Camera",
			"rotation":[
				-0.22316774725914001,
				-0.12212536484003067,
				-0.02819559909403324,
				0.9666885137557983
			],
			"translation":[
				-0.5290060639381409,
				1.3169734477996826,
				3.026651620864868
			]
		},
		{
			"mesh":0,
			"name":"Suzanne.001",
			"rotation":[
				-0.047850459814071655,
				-0.585034191608429,
				-0.16756367683410645,
				0.7920655012130737
			],
			"scale":[
				0.553403377532959,
				0.553403377532959,
				0.553403377532959
			],
			"translation":[
				0.5398119688034058,
				-0.6630067229270935,
				0.28322315216064453
			]
		},
		{
			"mesh":1,
			"name":"Cube.001",
			"scale":[
				0.15860074758529663,
				0.15860074758529663,
				0.15860074758529663
			],
			"translation":[
				-0.5362318754196167,
				0.29813674092292786,
				0.5274739265441895
			]
		},
		{
			"mesh":2,
			"name":"Cone",
			"rotation":[
				-0.020421046763658524,
				-0.2306564301252365,
				0.08766508102416992,
				0.9688629508018494
			],
			"scale":[
				0.13494522869586945,
				0.13494521379470825,
				0.13494521379470825
			],
			"translation":[
				0.5542124509811401,
				0.6925814151763916,
				0.5034446716308594
			]
		}
	],
	"cameras":[
		{
			"name":"Camera.002",
			"perspective":{
				"aspectRatio":1.7777777777777777,
				"yfov":0.39959648408210363,
				"zfar":1000,
				"znear":0.10000000149011612
			},
			"type":"perspective"
		}
	],
	"meshes":[
		{
			"name":"Suzanne.004",
			"primitives":[
				{
					"attributes":{
						"POSITION":0,
						"NORMAL":1,
						"TEXCOORD_0":2
					},
					"indices":3
				}
			]
		},
		{
			"name":"Cube.001",
			"primitives":[
				{
					"attributes":{
						"POSITION":4,
						"NORMAL":5,
						"TEXCOORD_0":6
					},
					"indices":7
				}
			]
		},
		{
			"name":"Cone",
			"primitives":[
				{
					"attributes":{
						"POSITION":8,
						"NORMAL":9,
						"TEXCOORD_0":10
					},
					"indices":11
				}
			]
		}
	],
	"accessors":[
		{
			"bufferView":0,
			"componentType":5126,
			"count":8157,
			"max":[
				0.4715689718723297,
				0.33347341418266296,
				0.292005717754364
			],
			"min":[
				-0.4715689718723297,
				-0.34504297375679016,
				-0.2763213813304901
			],
			"type":"VEC3"
		},
		{
			"bufferView":1,
			"componentType":5126,
			"count":8157,
			"type":"VEC3"
		},
		{
			"bufferView":2,
			"componentType":5126,
			"count":8157,
			"type":"VEC2"
		},
		{
			"bufferView":3,
			"componentType":5123,
			"count":47232,
			"type":"SCALAR"
		},
		{
			"bufferView":4,
			"componentType":5126,
			"count":24,
			"max":[
				1,
				1,
				1
			],
			"min":[
				-1,
				-1,
				-1
			],
			"type":"VEC3"
		},
		{
			"bufferView":5,
			"componentType":5126,
			"count":24,
			"type":"VEC3"
		},
		{
			"bufferView":6,
			"componentType":5126,
			"count":24,
			"type":"VEC2"
		},
		{
			"bufferView":7,
			"componentType":5123,
			"count":36,
			"type":"SCALAR"
		},
		{
			"bufferView":8,
			"componentType":5126,
			"count":128,
			"max":[
				1,
				1,
				1
			],
			"min":[
				-1,
				-1,
				-1
			],
			"type":"VEC3"
		},
		{
			"bufferView":9,
			"componentType":5126,
			"count":128,
			"type":"VEC3"
		},
		{
			"bufferView":10,
			"componentType":5126,
			"count":128,
			"type":"VEC2"
		},
		{
			"bufferView":11,
			"componentType":5123,
			"count":186,
			"type":"SCALAR"
		}
	],
	"bufferViews":[
		{
			"buffer":0,
			"byteLength":97884,
			"byteOffset":0,
			"target":34962
		},
		{
			"buffer":0,
			"byteLength":97884,
			"byteOffset":97884,
			"target":34962
		},
		{
			"buffer":0,
			"byteLength":65256,
			"byteOffset":195768,
			"target":34962
		},
		{
			"buffer":0,
			"byteLength":94464,
			"byteOffset":261024,
			"target":34963
		},
		{
			"buffer":0,
			"byteLength":288,
			"byteOffset":355488,
			"target":34962
		},
		{
			"buffer":0,
			"byteLength":288,
			"byteOffset":355776,
			"target":34962
		},
		{
			"buffer":0,
			"byteLength":192,
			"byteOffset":356064,
			"target":34962
		},
		{
			"buffer":0,
			"byteLength":72,
			"byteOffset":356256,
			"target":34963
		},
		{
			"buffer":0,
			"byteLength":1536,
			"byteOffset":356328,
			"target":34962
		},
		{
			"buffer":0,
			"byteLength":1536,
			"byteOffset":357864,
			"target":34962
		},
		{
			"buffer":0,
			"byteLength":1024,
			"byteOffset":359400,
			"target":34962
		},
		{
			"buffer":0,
			"byteLength":372,
			"byteOffset":360424,
			"target":34963
		}
	],
	"buffers":[
		{
			"byteLength":360796,
			"uri":"scenes.bin"
		}
	]
}
