{
	"asset":{
		"generator":"Khronos glTF Blender I/O v3.6.28",
		"version":"2.0"
	},
	"scene":0,
	"scenes":[
		{
			"name":"Scene",
			"nodes":[
				0,
				1,
				2,
				3,
				4
			]
		}
	],
	"nodes":[
		{
			"name":"Empty",
			"scale":[
				1,
				1,
				0.5
			],
			"translation":[
				0,
				0,
				-0.5
			]
		},
		{
			"mesh":0,
			"name":"Suzanne.001",
			"scale":[
				0.5582458972930908,
				0.5582458972930908,
				0.5582458972930908
			],
			"translation":[
				0.691694974899292,
				-0.39920681715011597,
				-2.211155652999878
			]
		},
		{
			"mesh":1,
			"name":"Cube.001",
			"scale":[
				0.15860074758529663,
				0.15860074758529663,
				0.15860074758529663
			],
			"translation":[
				2.325664520263672,
				-1.0065672397613525,
				10.746688842773438
			]
		},
		{
			"mesh":2,
			"name":"Cone",
			"scale":[
				0.13494521379470825,
				0.13494521379470825,
				0.13494521379470825
			],
			"translation":[
				-0.6958492398262024,
				0.298342227935791,
				-2.181497097015381
			]
		},
		{
			"camera":0,
			"name":"Camera"
		}
	],
	"cameras":[
		{
			"name":"Camera.003",
			"perspective":{
				"aspectRatio":1,
				"yfov":0.8586627244949342,
				"zfar":1000,
				"znear":0.10000000149011612
			},
			"type":"perspective"
		}
	],
	"meshes":[
		{
			"name":"Suzanne.004",
			"primitives":[
				{
					"attributes":{
						"POSITION":0,
						"NORMAL":1,
						"TEXCOORD_0":2
					},
					"indices":3
				}
			]
		},
		{
			"name":"Cube.001",
			"primitives":[
				{
					"attributes":{
						"POSITION":4,
						"NORMAL":5,
						"TEXCOORD_0":6
					},
					"indices":7
				}
			]
		},
		{
			"name":"Cone",
			"primitives":[
				{
					"attributes":{
						"POSITION":8,
						"NORMAL":9,
						"TEXCOORD_0":10
					},
					"indices":11
				}
			]
		}
	],
	"accessors":[
		{
			"bufferView":0,
			"componentType":5126,
			"count":8157,
			"max":[
				0.4715689718723297,
				0.33347341418266296,
				0.292005717754364
			],
			"min":[
				-0.4715689718723297,
				-0.34504297375679016,
				-0.2763213813304901
			],
			"type":"VEC3"
		},
		{
			"bufferView":1,
			"componentType":5126,
			"count":8157,
			"type":"VEC3"
		},
		{
			"bufferView":2,
			"componentType":5126,
			"count":8157,
			"type":"VEC2"
		},
		{
			"bufferView":3,
			"componentType":5123,
			"count":47232,
			"type":"SCALAR"
		},
		{
			"bufferView":4,
			"componentType":5126,
			"count":24,
			"max":[
				1,
				1,
				1
			],
			"min":[
				-1,
				-1,
				-1
			],
			"type":"VEC3"
		},
		{
			"bufferView":5,
			"componentType":5126,
			"count":24,
			"type":"VEC3"
		},
		{
			"bufferView":6,
			"componentType":5126,
			"count":24,
			"type":"VEC2"
		},
		{
			"bufferView":7,
			"componentType":5123,
			"count":36,
			"type":"SCALAR"
		},
		{
			"bufferView":8,
			"componentType":5126,
			"count":128,
			"max":[
				1,
				1,
				1
			],
			"min":[
				-1,
				-1,
				-1
			],
			"type":"VEC3"
		},
		{
			"bufferView":9,
			"componentType":5126,
			"count":128,
			"type":"VEC3"
		},
		{
			"bufferView":10,
			"componentType":5126,
			"count":128,
			"type":"VEC2"
		},
		{
			"bufferView":11,
			"componentType":5123,
			"count":186,
			"type":"SCALAR"
		}
	],
	"bufferViews":[
		{
			"buffer":0,
			"byteLength":97884,
			"byteOffset":0,
			"target":34962
		},
		{
			"buffer":0,
			"byteLength":97884,
			"byteOffset":97884,
			"target":34962
		},
		{
			"buffer":0,
			"byteLength":65256,
			"byteOffset":195768,
			"target":34962
		},
		{
			"buffer":0,
			"byteLength":94464,
			"byteOffset":261024,
			"target":34963
		},
		{
			"buffer":0,
			"byteLength":288,
			"byteOffset":355488,
			"target":34962
		},
		{
			"buffer":0,
			"byteLength":288,
			"byteOffset":355776,
			"target":34962
		},
		{
			"buffer":0,
			"byteLength":192,
			"byteOffset":356064,
			"target":34962
		},
		{
			"buffer":0,
			"byteLength":72,
			"byteOffset":356256,
			"target":34963
		},
		{
			"buffer":0,
			"byteLength":1536,
			"byteOffset":356328,
			"target":34962
		},
		{
			"buffer":0,
			"byteLength":1536,
			"byteOffset":357864,
			"target":34962
		},
		{
			"buffer":0,
			"byteLength":1024,
			"byteOffset":359400,
			"target":34962
		},
		{
			"buffer":0,
			"byteLength":372,
			"byteOffset":360424,
			"target":34963
		}
	],
	"buffers":[
		{
			"byteLength":360796,
			"uri":"scenes.bin"
		}
	]
}
